<svg version="1.1" viewBox="0.0 0.0 882.0 100.0" fill="none" stroke="none" stroke-linecap="square" stroke-miterlimit="10" xmlns:xlink="http://www.w3.org/1999/xlink" xmlns="http://www.w3.org/2000/svg"><clipPath id="p.0"><path d="m0 0l882.0 0l0 100.0l-882.0 0l0 -100.0z" clip-rule="nonzero"/></clipPath><g clip-path="url(#p.0)"><path fill="#000000" fill-opacity="0.0" d="m0 0l882.0 0l0 100.0l-882.0 0z" fill-rule="evenodd"/><path fill="#000000" fill-opacity="0.0" d="m206.28871 -13.803149l477.32288 0l0 110.960625l-477.32288 0z" fill-rule="evenodd"/><path fill="#000000" d="m357.43097 14.887471l0 8.078124l-5.03125 0l0 -8.078124l5.03125 0zm0 15.812499l0 41.29688l-5.03125 0l0 -41.29688l5.03125 0z" fill-rule="nonzero"/><path fill="#000000" d="m387.34488 29.528095q4.375 0 7.96875 2.34375q3.59375 2.34375 5.203125 5.984375l0.15625 0l0 -7.15625l5.03125 0l0 38.35938q0 9.546875 -4.453125 14.484375q-4.453125 4.9375 -13.828125 4.9375q-7.03125 0 -11.859375 -3.265625q-4.8125 -3.25 -5.28125 -9.234375l5.03125 0q0.625 3.90625 3.8125 6.078125q3.1875 2.171875 8.265625 2.171875q6.71875 0 10.0 -3.828125q3.28125 -3.828125 3.28125 -11.375l0 -5.984379l-0.15625 0q-1.875 4.031254 -5.375 6.265629q-3.5 2.21875 -7.796875 2.21875q-8.828125 0 -13.71875 -5.5625q-4.875 -5.578129 -4.875 -15.609379q0 -9.0625 5.0625 -14.9375q5.0625 -5.890625 13.53125 -5.890625zm-13.546875 21.328125q0 7.3125 3.6875 11.859375q3.6875 4.546879 9.90625 4.546879q5.96875 0 9.625 -4.718754q3.65625 -4.734375 3.65625 -11.6875q0 -7.34375 -3.515625 -12.21875q-3.515625 -4.890625 -9.84375 -4.890625q-6.21875 0 -9.875 4.75q-3.640625 4.75 -3.640625 12.359375z" fill-rule="nonzero"/><path fill="#000000" d="m436.44632 29.528095q7.265625 0 11.578125 3.75q4.3125 3.75 5.140625 10.390625l-5.046875 0q-1.09375 -4.921875 -4.03125 -7.421875q-2.921875 -2.5 -7.640625 -2.5q-6.484375 0 -10.46875 5.109375q-3.984375 5.09375 -3.984375 12.515625q0 7.34375 3.984375 12.46875q3.984375 5.109379 10.46875 5.109379q4.53125 0 7.96875 -3.203125q3.4375 -3.2031288 4.0625 -8.562504l5.03125 0q-1.171875 7.703129 -5.671875 11.875004q-4.484375 4.15625 -11.390625 4.15625q-8.75 0 -14.125 -6.15625q-5.375 -6.156254 -5.375 -15.687504q0 -9.578125 5.34375 -15.703125q5.359375 -6.140625 14.15625 -6.140625z" fill-rule="nonzero"/><path fill="#434343" d="m469.36026 14.887471l0 57.10938l-5.03125 0l0 -57.10938l5.03125 0z" fill-rule="nonzero"/><path fill="#434343" d="m487.86792 14.887471l0 8.078124l-5.03125 0l0 -8.078124l5.03125 0zm0 15.812499l0 41.29688l-5.03125 0l0 -41.29688l5.03125 0z" fill-rule="nonzero"/><path fill="#434343" d="m506.29745 14.887471l0 23.671875l0.15625 0q1.453125 -4.1875 5.4375 -6.609375q3.9843445 -2.421875 8.9374695 -2.421875q8.640625 0 13.578125 6.09375q4.9375 6.09375 4.9375 15.75q0 9.71875 -5.0 15.781254q-5.0 6.0625 -13.546875 6.0625q-4.921875 0 -8.9374695 -2.34375q-4.0 -2.359375 -5.796875 -6.734375l-0.15625 0l0 7.859375l-4.640625 0l0 -57.10938l5.03125 0zm0 36.484375q0 7.8125 3.765625 12.703129q3.7812195 4.875 10.7343445 4.875q6.328125 0 9.921875 -5.015629q3.59375 -5.03125 3.59375 -12.5625q0 -7.578125 -3.578125 -12.59375q-3.578125 -5.03125 -10.015625 -5.03125q-6.84375 0 -10.6405945 4.875q-3.78125 4.859375 -3.78125 12.75z" fill-rule="nonzero"/></g></svg>